@startuml
skinparam monochrome true
skinparam packageStyle rectangle
skinparam shadowing false

'left to right direction

skinparam classAttributeIconSize 0

hide circle
hide methods

title Domain Model - US008


class Vehicle {
    vehiclePlate
    brand
    model
    type
    tare
    grossWeight
    currentKms
    registerDate
    acquisitionDate
    checkUpFrequency
}

class FM {
}

class Checkup {
    date
    kms
}

FM "1" -- "*" Vehicle : manages >
Vehicle "1" -- "*" Checkup : needs >


@enduml