@startuml
skinparam monochrome true
skinparam packageStyle rectangle
skinparam shadowing false

'left to right direction

skinparam classAttributeIconSize 0

hide circle
hide methods

title US004 - Assign one or more skills to a collaborator

class Collaborator {
    name
    birthdate
    admissionDate
    address
    phoneNumber
    email
    taxpayerNumber
    identificationDocumentType
    identificationDocumentNumber
}

class Skill {
    name
}

class HRM {
}


Collaborator "1" -- "*" Skill : is assigned to <
HRM "1" -- "*" Skill : assigns >
@enduml