@startuml
skinparam monochrome true
skinparam packageStyle rectangle
skinparam shadowing false
'skinparam linetype ortho
skinparam linetype polyline
'left to right direction
skinparam classAttributeIconSize 0
hide circle
hide methods

'title Domain Model

'class Platform {
'  -description
'}

class HRM {
}

class VFM {
}

class GSM {
}

class Skill {
    name
}

class Job {
    name
}

class Collaborator {
    name
    birthdate
    admissionDate
    address
    phoneNumber
    email
    taxpayerNumber
    identificationDocumentType
    identificationDocumentNumber
}

class Team {
}

class Task {
}

class Vehicle {
    vehiclePlate
    brand
    model
    type
    tare
    grossWeight
    currentKms
    registerDate
    acquisitionDate
    checkUpFrequency
}

class Maintenance {
    vehiclePlate
    date
    kms
}

class GreenSpace {
    name
    area
    type
    address
    gsmEmail
}

class ToDoList {
}

class Agenda {
}


HRM "1" - "*" Skill : registers >
HRM "1" - "*" Job : registers >
HRM "1" --- "*" Collaborator : registers >
HRM "1" -- "*" Skill : assigns >
HRM "1" -- "*" Team : generates >
Collaborator "*" -- "1" Job : has >
Collaborator "1" -- "*" Skill : has >
Team "1" - "1..*" Collaborator : has >
Task "*" -- "0..1" Team : is assigned to >
VFM "1" -- "*" Vehicle : registers >
VFM "1" -- "*" Vehicle : manages >
Vehicle "1" - "*" Maintenance : has >
Task "1" - "*" Vehicle : has assigned >
VFM "1" -- "*" Maintenance : registers >
Task "*" -- "1" GreenSpace : is associated with >
Task "*" -- "1" ToDoList : belongs to >
Task "*" -- "1" Agenda : might be added to >
GSM "1" ---- "*" GreenSpace : registers >
GSM "1" -- "*" Task : creates and adds to ToDoList >
GSM "1" -- "*" Task : adds to Agenda >
GSM "1" -- "*" Task : postpones/cancels >
GSM "1" -- "*" Team : assigns to Task >



@enduml