@startuml
'skinparam monochrome true
skinparam packageStyle rectangle
skinparam shadowing false
skinparam linetype polyline
'skinparam linetype orto

skinparam classAttributeIconSize 0

'left to right direction

package UI {
    class AddEntryToDoUI
    {

    }
}

Package Core{
package Controller {
    class AddEntryToDoController
    {
        + AddEntryToDoController()
        + getGreenSpaces()
        + getSelectedGreenSpace(i)
        + addEntry(taskDto)
    }
}

package Domain {
    package Repository{

    class Repositories
    {
        - Repositories()
        + getInstance() : Repositories
        + getGreenSpaceRepository()
        + getToDoList()
    }

    class GreenSpaceRepository
        {
            - List<GreenSpace> greenSpacesList
            - List<GreenSpace> associatedGreenSpacesList
            + getGreenSpaces(email)
            + getSelectedGreenSpace(i)
        }

    class ToDoList
    {
        - add(createdTask)
        + addEntry(taskDto, selectedGreenSpace)
    }
    }
    package Model {
    class UserSession
    {
        + getUserEmail()
    }

    class GreenSpace
    {
        - String name
        - String type
        - int area
        - String address
        - String gsmEmail
        + hasUserEmail(email)
    }

    class Task
    {
        - String title
        - String description
        - int expectedDuration
        - Calendar startingDate
        + Task(title, description, degreeOfUrgency, expectedDuration, selectedGreenSpace)
    }

    enum DegreeOfUrgency
    {
        Low
        Medium
        High
    }

    enum TaskStatus
    {
        Pending
        Processed
        Planned
        Postponed
        Canceled
        Done
    }
    class ApplicationSession
    {
        + static getInstance()
        + getCurrentSession()
    }
    }
}

package Mapper {
    class GreenSpaceMapper
    {
        - List<GreenSpaceDto> associatedGreenSpacesListDto
        + toDTO(associatedGreenSpacesList)
        - toDTO(obj)
    }

    class TaskMapper
    {
        + toModel(taskDto, selectedGreenSpace)
    }

package DTO {
    class GreenSpaceDto
        {
            - String name
            - String type
            - int area
            - String address
            + GreenSpaceDto(name, type, area, address)
        }

    class TaskDto
    {
        - String title
        - String description
        - String degreeOfUrgency
        - int expectedDuration
        - Calendar startingDate
        + TaskDto(title, description, degreeOfUrgency, expectedDuration, selectedGreenSpace)
        + getTitle()
        + getDescription()
        + getDegreeOfUrgency()
        + getExpectedDuration()
    }
    }
    }
}

Task +-- DegreeOfUrgency
Task +-- TaskStatus

Repositories -> Repositories : instance
ApplicationSession -> ApplicationSession : instance

AddEntryToDoUI .> AddEntryToDoController
AddEntryToDoUI ..> GreenSpaceDto
AddEntryToDoUI ..> TaskDto

AddEntryToDoController .> Repositories : repositories

Repositories -> "1" GreenSpaceRepository
Repositories -> "1" ToDoList

AddEntryToDoController ..> GreenSpaceRepository : greenSpaceRepostory
AddEntryToDoController ..> ToDoList : toDoList
AddEntryToDoController ..> ApplicationSession
AddEntryToDoController ..> UserSession
AddEntryToDoController ..> GreenSpaceMapper

ApplicationSession --> "1" UserSession : userSession

GreenSpaceRepository "1" --> "*" GreenSpace
ToDoList "1" --> "*" Task

Task "*" --> "1" GreenSpace

ToDoList ..> TaskMapper

TaskMapper ..> TaskDto
TaskMapper ..> Task

GreenSpaceMapper ..> GreenSpaceDto
GreenSpaceMapper ..> GreenSpace

@enduml