@startuml
skinparam monochrome true
skinparam packageStyle rectangle
skinparam shadowing false

'left to right direction

skinparam classAttributeIconSize 0

hide circle
hide methods

title US008 - Produce a list of vehicles needing maintenance

class Vehicle {
    vehiclePlate
    brand
    model
    type
    tare
    grossWeight
    currentKms
    registerDate
    acquisitionDate
    checkUpFrequency
}

class VFM {
}

class Maintenance {
    vehiclePlate
    date
    kms
}

VFM "1" -- "*" Vehicle : manages >
Vehicle "1" -- "*" Maintenance : has >


@enduml