@startuml
'skinparam monochrome true
skinparam packageStyle rectangle
skinparam shadowing false
skinparam linetype polyline
skinparam linetype orto

skinparam classAttributeIconSize 0

'left to right direction

title US025 - Cancel an entry in the agenda

class CancelEntryUI {
}

class CancelEntryController {
    + cancelEntryController(taskRepository, greenSpaceRepository)
    + getGreenSpaces()
    + getTasksByGreenSpace(greenSpace)
    + cancelEntry(task)
}

class Repositories {
     - Repositories()
     + getInstance() : Repositories
     + getGreenSpaceRepository()
     + getTaskRepository()
 }

 class TaskRepository {
     + getTasksByGreenSpace(greenSpace)
     + toDTO(tasks)
     + cancelEntry(task)
 }

 class GreenSpaceRepository {
     + List<GreenSpace> getGreenSpaces()
     + toDTO(greenSpaces)

 }

 class GreenSpaceMapper {
     + List<GreenSpaceDTO> toDTO(List<GreenSpace> greenSpaces)
     + GreenSpaceDTO toDTO(GreenSpace greenSpace)
 }

 class TaskMapper {
     + List<TaskDTO> toDTO(List<Task> tasks)
     + TaskDTO toDTO(Task task)
 }

 class GreenSpaceDTO {
     name
     area
     type
     address
 }

 class TaskDTO {
     title
     description
     degreeOfUrgency
     expectedDuration
     status
     startingDate
 }

 class Task {
     title
     description
     degreeOfUrgency
     expectedDuration
     status
     startingDate
 }

 class GreenSpace {
     name
     area
     type
     address
 }

 CancelEntryUI ..> CancelEntryController
 CancelEntryController ...> Repositories: repositories
 CancelEntryController ..> TaskRepository: taskRepository
 CancelEntryController ..> GreenSpaceRepository: greenSpaceRepository

 Repositories -> Repositories : instance
 Repositories ---> "1" TaskRepository: taskRepository
 Repositories ---> "1" GreenSpaceRepository: greenSpaceRepository

 TaskRepository --> Task: tasks
 GreenSpaceRepository --> GreenSpace: green spaces

 TaskRepository ..> TaskMapper
 TaskMapper ..> TaskDTO
 TaskMapper ..> Task
 GreenSpaceRepository ..> GreenSpaceMapper
 GreenSpaceMapper ..> GreenSpaceDTO
 GreenSpaceMapper ..> GreenSpace


@enduml