@startuml
'skinparam monochrome true
skinparam packageStyle rectangle
skinparam shadowing false
skinparam linetype polyline
skinparam linetype orto

skinparam classAttributeIconSize 0

'left to right direction

class Skill
{
    - name
    + Skill(name)
}

class Collaborator {
    - String name
    - Calendar birthdate
    - Calendar admissionDate
    - String address
    - Integer phoneNumber
    - String email
    - Integer taxpayerNumber
    - String identificationDocumentNumber
    + Collaborator(name, birthdate,\nadmissionDate, address, phoneNumber,\nemail, taxpayerNumber, identificationDocumentType,\nidentificationDocumentNumber, job)
}

enum DocType
{
    CC
    BI
    Passport
}

class AssignSkillsController {
    + AssignSkillsController()
    + getCollaborators()
    + getSkills(collaboratorIdNumber)
    + addSelectedSkill(skillName)
    + assignSkill(collaboratorIdNumber)
    - getSelectedSkillsList()
    - getCollaboratorByIdNumber(collaboratorIdNumber)
}

class AssignSkillsUI {
}

class Repositories {
    - Repositories()
    + getInstance() : Repositories
    + getSkillRepository()
    + getCollaboratorRepository()
}

class SkillRepository {
    + createSelectedSkillsList()
    + createTempSkillsList()
    + addSelectedSkill(skillName)
    - getSkillByName(skillName)
    + getSelectedSkillsList()
}

class CollaboratorRepository {
    + getCollaborators()
    + removeAlreadyAssignedSkills(collaboratorIdNumber, tempSkillsList)
    + getCollaboratorByIdNumber(collaboratorIdNumber)
    + assignSkill(collaborator, selectedSkillsList)
}

Collaborator +-- DocType

Collaborator "1" --> "*" Skill: is assigned
AssignSkillsUI ..> AssignSkillsController

AssignSkillsController ...> Repositories: repositories
AssignSkillsController ..> SkillRepository: skillRepository
AssignSkillsController ..> CollaboratorRepository: collaboratorRepository

Repositories -> Repositories : instance
Repositories ---> "1" SkillRepository: skillRepository
Repositories ---> "1" CollaboratorRepository: collaboratorRepository

SkillRepository --> Skill: skills
CollaboratorRepository --> Collaborator: collaborators


@enduml